<svg width="85" height="85" fill="none" xmlns="http://www.w3.org/2000/svg"><path d="M32.807 77.614c19.471 5.218 39.486-6.338 44.703-25.81 5.217-19.47-6.338-39.485-25.81-44.702C32.23 1.884 12.215 13.44 6.997 32.91c-5.217 19.471 6.338 39.486 25.81 44.703z" fill="#F9F000" stroke="#fff" stroke-width="4"/><path fill-rule="evenodd" clip-rule="evenodd" d="M33.978 73.244c17.058 4.57 34.591-5.552 39.162-22.61 4.57-17.058-5.553-34.592-22.61-39.162-17.058-4.57-34.592 5.552-39.163 22.61-4.57 17.058 5.553 34.591 22.61 39.162zm-.654 2.438c18.405 4.932 37.323-5.99 42.254-24.395 4.931-18.404-5.99-37.322-24.395-42.254C32.778 4.102 13.86 15.024 8.929 33.43 3.998 51.833 14.92 70.75 33.324 75.682z" fill="#000"/><path fill-rule="evenodd" clip-rule="evenodd" d="M53.492 29.544c.678.162 1.096.842.934 1.52-.792 3.323-1.534 5.913-2.273 8.49l-.001.006c-.628 2.192-1.254 4.375-1.915 7.015 2.116.201 4.267.469 6.001.705a166.209 166.209 0 012.659.382c.094-.341.204-.755.326-1.221.272-1.04.594-2.312.91-3.56l.294-1.154a1.262 1.262 0 012.45.603l-.552 2.327c-1.237 5.215-2.083 8.778-3.978 15.67a1.262 1.262 0 01-2.434-.67c1.089-3.96 1.828-6.81 2.497-9.515-.637-.097-1.504-.224-2.512-.36-2.12-.29-4.842-.621-7.336-.819a1.263 1.263 0 01-1.128-1.552c.804-3.357 1.55-5.964 2.288-8.535l.005-.018c.738-2.576 1.466-5.117 2.244-8.38a1.262 1.262 0 011.52-.934zm-10.128 1.121a.928.928 0 00-.823-1.065c-2.984-.384-5.49.69-7.645 2.647-2.097 1.903-3.817 4.61-5.188 7.483 4.2 1.1 7.507 1.873 10.978 2.533 1.19-4.292 2.325-8.822 2.678-11.598zm-.183 12.05c1.173-4.246 2.317-8.82 2.687-11.731a3.451 3.451 0 00-3.005-3.888c-3.882-.5-7.098.952-9.664 3.282-2.537 2.303-4.484 5.496-5.948 8.646l-.023.048c-1.12-.3-2.305-.623-3.571-.971a1.262 1.262 0 10-.669 2.434c1.138.313 2.212.605 3.232.88A59.888 59.888 0 0024.1 47.8a60.563 60.563 0 00-.723 2.928 42.745 42.745 0 00-.217 1.055l-.012.06-.003.017v.006s-.001.001 1.241.224l-1.242-.223a1.262 1.262 0 002.485.447v-.002l.002-.011.01-.05c.008-.044.02-.112.038-.201.036-.179.09-.444.164-.782.148-.676.376-1.645.692-2.804a56.979 56.979 0 012.143-6.393c4.341 1.141 7.75 1.946 11.32 2.632a347.974 347.974 0 01-2.423 8.055l-.042.133-.014.044 1.203.383-1.203-.383a1.262 1.262 0 002.405.766l-1.202-.383 1.202.383.015-.047a342.413 342.413 0 01.206-.654c.14-.45.342-1.098.586-1.896.471-1.54 1.102-3.64 1.762-5.946.86.15 1.743.295 2.661.439a1.262 1.262 0 10.392-2.494c-.814-.128-1.599-.256-2.365-.388z" fill="#000"/></svg>