<svg width="284" height="83" fill="none" xmlns="http://www.w3.org/2000/svg"><circle cx="40" cy="42.104" r="40" fill="#fff"/><path d="M75 42.078a34.79 34.79 0 01-4.837 17.725s-12.195 4.301-30.169 4.301-30.168-4.3-30.168-4.3A34.78 34.78 0 015 42.077C5 22.764 20.67 7.104 39.994 7.104 59.331 7.104 75 22.764 75 42.078z" fill="#FF8300"/><path d="M56 46.231c0-.521-.44-.943-.985-.943H53.07V22.06c0-.522-.44-.943-.985-.943H34.103c-.533 0-1.055 0-1.541-.011a4.492 4.492 0 00-1.32.144c-.383.1-.696.288-.916.543-.22.256-.336.655-.336 1.187v2.496c0 .843-.012 1.753-.046 2.73-.035.975-.093 5.878-.186 6.888a38.386 38.386 0 01-.429 3.04 18.28 18.28 0 01-.764 2.861c-.325.899-.73 1.72-1.217 2.474-.382.577-.81 1.087-1.297 1.498a1.67 1.67 0 01-.846.377 1.931 1.931 0 00-.765.266c-.301.189-.44.588-.44 1.21v8.341c0 .521.44.943.985.943h5.793c.544 0 .984-.422.984-.943v-3.838h16.406v3.838c0 .521.44.943.985.943h5.85c.545 0 .985-.422.985-.943v-8.897c.012-.022.012-.022.012-.033zm-10.694-.943h-11.03c.58-.787 1.043-1.73 1.426-2.828.382-1.099.672-2.23.892-3.384.22-1.165.37-2.296.463-3.394.093-1.11.14-5.968.14-6.79v-1.674h8.12v18.07h-.01z" fill="#fff"/><path d="M11 62.104c6.432 9.071 17.013 15 29 15 11.976 0 22.569-5.929 29-15 0 0-14.362 4.915-29 4.915s-29-4.915-29-4.915z" fill="#74BB23"/><path d="M39.994 66.604c14.641 0 29.006-4.5 29.006-4.5s-12.186 9-29.213 9c-17.04 0-28.787-9-28.787-9s14.364 4.5 28.994 4.5z" fill="#91D400"/><mask id="path-6-outside-1_1_1713" maskUnits="userSpaceOnUse" x="93.481" y="16.205" width="191" height="56" fill="#000"><path fill="#fff" d="M93.481 16.205h191v56h-191z"/><path fill-rule="evenodd" clip-rule="evenodd" d="M240.319 50.998c.46-.253 1.02-.23 1.458.058.439.288.713.794.703 1.335v6.194c0 .564-.286 1.082-.757 1.358-.483.3-4.981 2.855-11.772 2.855-11.717 0-20.548-9.152-20.548-21.297 0-12.144 8.898-21.296 20.702-21.296 6.034 0 10.236 2.222 11.376 2.9.473.277.757.795.757 1.36v6.192a1.6 1.6 0 01-.713 1.336c-.439.288-.998.31-1.459.057-3.236-1.738-6.418-2.578-9.71-2.578-6.812 0-11.562 4.95-11.562 12.03 0 6.975 4.795 12.029 11.41 12.029 3.587 0 6.987-.852 10.115-2.533zM123.393 53.07h-13.428c.702-1.047 1.273-2.313 1.733-3.776a33.74 33.74 0 001.086-4.523c.264-1.543.45-3.063.56-4.536.11-1.474.165-7.966.165-9.06v-2.233h9.884V53.07zm11.827 0h-2.359v-31c0-.703-.538-1.267-1.207-1.267h-21.886c-.659 0-1.284 0-1.876-.023a5.294 5.294 0 00-1.602.196c-.472.138-.834.38-1.108.725-.274.346-.406.875-.406 1.577v3.327c0 1.128-.011 2.337-.044 3.638-.008.329-.019.985-.033 1.805-.041 2.454-.107 6.375-.197 7.392a50.131 50.131 0 01-.527 4.053 28.15 28.15 0 01-.932 3.81 16.452 16.452 0 01-1.481 3.292 8.853 8.853 0 01-1.646 2.061 1.657 1.657 0 01-.922.437 2.28 2.28 0 00-.976.369c-.362.253-.537.794-.537 1.611v11.144c0 .702.537 1.266 1.206 1.266h7.054c.67 0 1.207-.564 1.207-1.266v-5.123h19.978v5.123c0 .702.537 1.266 1.206 1.266h7.12c.67 0 1.207-.564 1.207-1.266V54.326c-.033-.692-.57-1.256-1.239-1.256zm63.75-14.85l12.375-14.734c.384-.46.482-1.117.242-1.681a1.493 1.493 0 00-1.361-.92h-7.613c-.439 0-.845.195-1.13.54L188.428 37.37V22.44c0-.864-.67-1.566-1.493-1.566h-6.351c-.823 0-1.493.702-1.493 1.565V60.53c0 .864.67 1.566 1.493 1.566h6.351c.823 0 1.493-.702 1.493-1.566V49.916l4.169-4.823 9.346 16.243c.274.472.758.76 1.273.76h7.208c.538 0 1.042-.311 1.305-.806a1.63 1.63 0 00-.034-1.589l-12.725-21.48zm-56.115-17.335h6.253c.823 0 1.493.702 1.493 1.565v20.215l20.384-21.895c.285-.3.668-.473 1.063-.473h.197c.823 0 1.493.703 1.493 1.566v38.68c0 .863-.67 1.565-1.493 1.565h-6.253c-.822 0-1.492-.702-1.492-1.566V40.27l-20.427 21.953c-.285.3-.669.472-1.064.472h-.154c-.823 0-1.492-.702-1.492-1.566V22.45c0-.863.669-1.565 1.492-1.565zm112.515 0h-6.254c-.821 0-1.491.702-1.491 1.565v38.68c0 .863.67 1.565 1.491 1.565h.155c.395 0 .778-.173 1.065-.472l20.426-21.953v20.272c0 .864.67 1.566 1.493 1.566h6.252c.823 0 1.493-.702 1.493-1.566V21.863c0-.863-.67-1.566-1.493-1.566h-.197c-.395 0-.779.173-1.064.473l-20.383 21.895V22.45c0-.863-.67-1.565-1.493-1.565z"/></mask><path fill-rule="evenodd" clip-rule="evenodd" d="M240.319 50.998c.46-.253 1.02-.23 1.458.058.439.288.713.794.703 1.335v6.194c0 .564-.286 1.082-.757 1.358-.483.3-4.981 2.855-11.772 2.855-11.717 0-20.548-9.152-20.548-21.297 0-12.144 8.898-21.296 20.702-21.296 6.034 0 10.236 2.222 11.376 2.9.473.277.757.795.757 1.36v6.192a1.6 1.6 0 01-.713 1.336c-.439.288-.998.31-1.459.057-3.236-1.738-6.418-2.578-9.71-2.578-6.812 0-11.562 4.95-11.562 12.03 0 6.975 4.795 12.029 11.41 12.029 3.587 0 6.987-.852 10.115-2.533zM123.393 53.07h-13.428c.702-1.047 1.273-2.313 1.733-3.776a33.74 33.74 0 001.086-4.523c.264-1.543.45-3.063.56-4.536.11-1.474.165-7.966.165-9.06v-2.233h9.884V53.07zm11.827 0h-2.359v-31c0-.703-.538-1.267-1.207-1.267h-21.886c-.659 0-1.284 0-1.876-.023a5.294 5.294 0 00-1.602.196c-.472.138-.834.38-1.108.725-.274.346-.406.875-.406 1.577v3.327c0 1.128-.011 2.337-.044 3.638-.008.329-.019.985-.033 1.805-.041 2.454-.107 6.375-.197 7.392a50.131 50.131 0 01-.527 4.053 28.15 28.15 0 01-.932 3.81 16.452 16.452 0 01-1.481 3.292 8.853 8.853 0 01-1.646 2.061 1.657 1.657 0 01-.922.437 2.28 2.28 0 00-.976.369c-.362.253-.537.794-.537 1.611v11.144c0 .702.537 1.266 1.206 1.266h7.054c.67 0 1.207-.564 1.207-1.266v-5.123h19.978v5.123c0 .702.537 1.266 1.206 1.266h7.12c.67 0 1.207-.564 1.207-1.266V54.326c-.033-.692-.57-1.256-1.239-1.256zm63.75-14.85l12.375-14.734c.384-.46.482-1.117.242-1.681a1.493 1.493 0 00-1.361-.92h-7.613c-.439 0-.845.195-1.13.54L188.428 37.37V22.44c0-.864-.67-1.566-1.493-1.566h-6.351c-.823 0-1.493.702-1.493 1.565V60.53c0 .864.67 1.566 1.493 1.566h6.351c.823 0 1.493-.702 1.493-1.566V49.916l4.169-4.823 9.346 16.243c.274.472.758.76 1.273.76h7.208c.538 0 1.042-.311 1.305-.806a1.63 1.63 0 00-.034-1.589l-12.725-21.48zm-56.115-17.335h6.253c.823 0 1.493.702 1.493 1.565v20.215l20.384-21.895c.285-.3.668-.473 1.063-.473h.197c.823 0 1.493.703 1.493 1.566v38.68c0 .863-.67 1.565-1.493 1.565h-6.253c-.822 0-1.492-.702-1.492-1.566V40.27l-20.427 21.953c-.285.3-.669.472-1.064.472h-.154c-.823 0-1.492-.702-1.492-1.566V22.45c0-.863.669-1.565 1.492-1.565zm112.515 0h-6.254c-.821 0-1.491.702-1.491 1.565v38.68c0 .863.67 1.565 1.491 1.565h.155c.395 0 .778-.173 1.065-.472l20.426-21.953v20.272c0 .864.67 1.566 1.493 1.566h6.252c.823 0 1.493-.702 1.493-1.566V21.863c0-.863-.67-1.566-1.493-1.566h-.197c-.395 0-.779.173-1.064.473l-20.383 21.895V22.45c0-.863-.67-1.565-1.493-1.565z" fill="#FF8300"/><path d="M241.777 51.056l-2.198 3.342.006.004 2.192-3.346zm-1.458-.058l1.893 3.524.018-.01.018-.01-1.929-3.504zm2.161 1.393l-3.999-.07-.001.035v.035h4zm-.757 7.552l-2.024-3.45-.043.025-.042.026 2.109 3.399zm-.242-36.837l-2.048 3.436.015.009.015.008 2.018-3.453zm.044 8.887l2.192 3.346-2.192-3.346zm-1.459.057l1.924-3.506-.016-.01-.015-.008-1.893 3.524zM109.965 53.07l-3.323-2.226-4.173 6.226h7.496v-4zm13.428 0v4h4v-4h-4zm-11.695-3.776l3.815 1.203-3.815-1.203zm1.086-4.523l-3.943-.673v.004l3.943.669zm.56-4.536l-3.989-.297 3.989.297zm.165-11.293v-4h-4v4h4zm9.884 0h4v-4h-4v4zm9.468 24.128h-4v4h4v-4zm-24.969-32.29l.155-3.997-.04-.001-.039-.001-.076 4zm-1.602.196l-1.124-3.839 1.124 3.839zm-1.108.725l-3.133-2.487 3.133 2.487zm-.45 8.542l-3.999-.101 3.999.1zm-.033 1.805l3.999.074.001-.007-4-.067zm0 0l-3.999-.074v.012l-.001.012 4 .05zm0 0l3.999.074.001-.012v-.012l-4-.05zm0 0l-3.999-.074v.01l-.001.009 4 .055zm0 0l3.999.112v-.028l.001-.028-4-.056zm0 0l-3.998-.11-.001.021v.023l3.999.067zm-.197 7.392l3.984.355-3.984-.355zm-1.459 7.863l3.798 1.253.005-.015.005-.016-3.808-1.222zm-1.481 3.292l-3.433-2.054-.01.017-.01.016 3.453 2.021zm-1.646 2.061l-2.709-2.943-.03.027-.028.027 2.767 2.889zm-.922.437l-.535-3.964-.03.004-.028.005.593 3.955zm-.976.369l2.292 3.278.001-.001-2.293-3.277zm8.93 7.632v-4h-4v4h4zm19.978 0h4v-4h-4v4zm9.533-6.769h4v-.095l-.004-.095-3.996.19zm74.886-30.84l3.063 2.573.005-.006.005-.006-3.073-2.56zM198.97 38.222l-3.063-2.573-1.824 2.172 1.445 2.44 3.442-2.04zm12.617-16.416l3.68-1.568-.004-.009-3.676 1.577zm-10.104-.38l-3.086-2.545-.004.005-.005.006 3.095 2.534zM188.428 37.37h-4v11.199l7.095-8.665-3.095-2.534zm0 12.547l-3.026-2.615-.974 1.126v1.49h4zm4.169-4.823l3.466-1.995-2.809-4.883-3.684 4.262 3.027 2.616zm9.346 16.243l-3.467 1.995.007.012 3.46-2.007zm9.786-.046l-3.529-1.884-.005.01 3.534 1.874zm-.034-1.589l-3.441 2.04 3.441-2.04zm-61.094-17.036h-4V52.83l6.927-7.44-2.927-2.726zm20.384-21.895l-2.898-2.758-.015.016-.015.016 2.928 2.726zm-6.485 19.5h4V30.1l-6.928 7.445 2.928 2.725zm-20.427 21.953l2.895 2.76.017-.018.016-.017-2.928-2.725zm106.263 0l2.889 2.766.02-.02.019-.021-2.928-2.725zm20.426-21.953h4V30.1l-6.928 7.445 2.928 2.725zm6.484-19.5l-2.897-2.758-.015.016-.015.016 2.927 2.726zm-20.383 21.895h-4v10.167l6.928-7.442-2.928-2.725zm-12.889 5.049a5.41 5.41 0 00-5.584-.22l3.858 7.008a2.588 2.588 0 01-2.669-.104l4.395-6.684zm2.506 4.748a5.57 5.57 0 00-2.511-4.752l-4.384 6.692a2.43 2.43 0 01-1.104-2.081l7.999.14zm0 6.123V52.39h-8v6.194h8zm-2.733 4.808c1.76-1.032 2.733-2.902 2.733-4.808h-8c0-.779.401-1.613 1.219-2.092l4.048 6.9zm-13.796 3.405c7.759 0 12.985-2.9 13.881-3.456l-4.218-6.798c.008-.005-.954.571-2.673 1.143a22.235 22.235 0 01-6.99 1.11v8zM205.403 41.5c0 14.218 10.488 25.297 24.548 25.297v-8c-9.374 0-16.548-7.225-16.548-17.297h-8zm24.702-25.296c-14.119 0-24.702 11.05-24.702 25.296h8c0-10.043 7.213-17.296 16.702-17.296v-8zm13.424 3.465c-1.506-.898-6.422-3.465-13.424-3.465v8c5.066 0 8.554 1.876 9.328 2.337l4.096-6.872zm2.709 4.794c0-1.9-.966-3.776-2.739-4.812l-4.036 6.907a2.44 2.44 0 01-1.225-2.095h8zm0 6.193v-6.193h-8v6.193h8zm-2.521 4.682a5.6 5.6 0 002.521-4.682h-8a2.4 2.4 0 011.095-2.01l4.384 6.692zm-5.575.218a5.413 5.413 0 005.575-.218l-4.384-6.692a2.586 2.586 0 012.657-.103l-3.848 7.013zm-7.786-2.085c2.563 0 5.1.642 7.817 2.102l3.786-7.047c-3.755-2.017-7.582-3.055-11.603-3.055v8zm-7.562 8.03c0-2.633.871-4.608 2.111-5.9 1.23-1.279 3.051-2.13 5.451-2.13v-8c-4.412 0-8.371 1.623-11.22 4.588-2.837 2.954-4.342 6.994-4.342 11.441h8zm7.41 8.029c-4.21 0-7.41-3.06-7.41-8.03h-8c0 8.983 6.389 16.03 15.41 16.03v-8zm8.221-2.056c-2.539 1.365-5.288 2.056-8.221 2.056v8c4.242 0 8.293-1.012 12.008-3.01l-3.787-7.046zm-128.46 9.595h13.428v-8h-13.428v8zm-2.082-8.978c-.379 1.205-.805 2.1-1.241 2.752l6.646 4.453c.968-1.444 1.684-3.08 2.225-4.8l-7.63-2.405zm.958-3.99a29.763 29.763 0 01-.958 3.99l7.63 2.405a37.755 37.755 0 001.215-5.058l-7.887-1.337zm.514-4.164a44.676 44.676 0 01-.513 4.16l7.885 1.345a52.13 52.13 0 00.606-4.911l-7.978-.594zm.154-8.763c0 1.156-.058 7.473-.154 8.763l7.978.594c.123-1.657.176-8.325.176-9.357h-8zm0-2.233v2.233h8v-2.233h-8zm13.884-4h-9.884v8h9.884v-8zm4 28.128V28.942h-8V53.07h8zm6.675 4h1.152v-8h-1.152v8zm-1.196 0h1.196v-8h-1.196v8zm-.011 0h.011v-8h-.011v8zm-4-32.825V53.07h8V24.245h-8zm0-2.164v2.164h8V22.08h-8zm0-.011v.011h8v-.011h-8zm2.793 2.733a2.767 2.767 0 01-2.793-2.733h8c0-2.728-2.149-5.267-5.207-5.267v8zm-2.348 0h2.348v-8h-2.348v8zm-19.538 0h19.538v-8h-19.538v8zm-2.032-.026c.685.027 1.39.026 2.032.026v-8c-.675 0-1.22 0-1.721-.02l-.311 7.994zm-.322.038a1.4 1.4 0 01.401-.036l.153-7.998a9.282 9.282 0 00-2.802.356l2.248 7.678zm.9-.626c-.119.15-.272.294-.454.414a1.7 1.7 0 01-.446.212l-2.248-7.678a6.128 6.128 0 00-3.117 2.077l6.265 4.975zm.462-.91c0-.117.013-.078-.024.066a2.31 2.31 0 01-.438.844l-6.265-4.975c-1.099 1.385-1.273 3.002-1.273 4.064h8zm0 3.326v-3.327h-8v3.327h8zm-.045 3.74c.034-1.342.045-2.585.045-3.74h-8c0 1.102-.011 2.276-.043 3.537l7.998.202zm-.032 1.77c.013-.831.024-1.464.032-1.772l-7.998-.2c-.008.35-.02 1.029-.033 1.838l7.999.134zm-.001.007l-7.998-.148 7.998.148zm.001-.024l-8-.1 8 .1zm-.001.025l-7.998-.149 7.998.149zm.001-.019l-8-.111 8 .111zm-.001.056l-7.997-.222 7.997.222zm-.212 7.634c.107-1.205.173-5.35.213-7.678l-7.999-.134c-.044 2.579-.109 6.275-.183 7.105l7.969.707zm-.569 4.379c.249-1.447.439-2.914.569-4.378l-7.969-.709a45.75 45.75 0 01-.484 3.727l7.884 1.36zm-1.066 4.352a32.028 32.028 0 001.066-4.352l-7.884-1.36a24.131 24.131 0 01-.8 3.268l7.618 2.444zm-1.857 4.124a20.411 20.411 0 001.847-4.093l-7.597-2.506a12.438 12.438 0 01-1.115 2.491l6.865 4.108zm-2.369 2.95a12.86 12.86 0 002.389-2.983l-6.904-4.042c-.28.478-.581.843-.903 1.139l5.418 5.886zm-3.095 1.458a5.66 5.66 0 003.153-1.513l-5.534-5.777c.4-.383.869-.578 1.31-.638l1.071 7.928zm.781-.318a1.75 1.75 0 01-.723.31l-1.188-7.91a6.271 6.271 0 00-2.676 1.047l4.586 6.554zm1.169-1.666c0-.16.022-.037-.069.24a2.9 2.9 0 01-1.101 1.427l-4.584-6.556c-2.098 1.467-2.245 3.875-2.245 4.89h7.999zm0 8.956v-8.956h-8v8.956h8zm0 1.014v-1.014h-8v1.014h8zm0 1.162v-1.162h-8v1.162h8zm0 .012v-.012h-8v.012h8zm-2.793-2.734c1.72 0 2.793 1.41 2.793 2.734h-8c0 2.727 2.15 5.266 5.207 5.266v-8zm.933 0h-.933v8h.933v-8zm1.415 0H99.62v8h1.415v-8zm2.359 0h-2.359v8h2.359v-8zm1.349 0h-1.349v8h1.349v-8zm.998 0h-.998v8h.998v-8zm-2.793 2.734a2.768 2.768 0 012.793-2.734v8c3.058 0 5.207-2.54 5.207-5.266h-8zm0-.012v.012h8v-.012h-8zm0-1.151v1.151h8v-1.151h-8zm0-.011v.011h8v-.011h-8zm0-3.949v3.949h8v-3.949h-8zm23.978-4h-19.978v8h19.978v-8zm4 6.947v-2.947h-8v2.947h8zm0 2.164V64.04h-8v2.164h8zm0 .012v-.012h-8v.012h8zm-2.794-2.734c1.72 0 2.794 1.41 2.794 2.734h-8c0 2.727 2.148 5.266 5.206 5.266v-8zm1.021 0h-1.021v8h1.021v-8zm1.327 0h-1.327v8h1.327v-8zm2.425 0h-2.425v8h2.425v-8zm1.36 0h-1.36v8h1.36v-8zm.987 0h-.987v8h.987v-8zm-2.793 2.734a2.767 2.767 0 012.793-2.734v8c3.058 0 5.207-2.539 5.207-5.266h-8zm0-.012v.012h8v-.012h-8zm0-1.162v1.162h8v-1.162h-8zm0-1.014v1.014h8v-1.014h-8zm0-6.066v6.066h8v-6.066h-8zm0-1.462v1.462h8V56.5h-8zm0-.472v.472h8v-.472h-8zm0-1.693v1.693h8v-1.693h-8zm0-.01v.01h8v-.01h-8zm2.761 2.744a2.721 2.721 0 01-2.756-2.554l7.991-.381c-.122-2.559-2.175-5.065-5.235-5.065v8zm73.062-36.157l-12.375 14.735 6.126 5.145 12.375-14.735-6.126-5.145zm-.375 2.46a2.362 2.362 0 01.365-2.448l6.146 5.121a5.638 5.638 0 00.849-5.809l-7.36 3.136zm2.319 1.511a2.508 2.508 0 01-2.315-1.502l7.352-3.154c-.848-1.978-2.796-3.344-5.037-3.344v8zm-7.613 0h7.613v-8h-7.613v8zm1.955-.913a2.545 2.545 0 01-1.955.913v-8c-1.673 0-3.196.76-4.216 1.996l6.171 5.09zm-13.045 15.932l13.055-15.944-6.19-5.068-13.055 15.944 6.19 5.068zm-7.095-17.465v14.93h8v-14.93h-8zm2.507 2.435a2.47 2.47 0 01-2.507-2.435h8c0-2.892-2.285-5.565-5.493-5.565v8zm-6.351 0h6.351v-8h-6.351v8zm2.507-2.435a2.47 2.47 0 01-2.507 2.435v-8c-3.208 0-5.493 2.673-5.493 5.565h8zm0 38.092V22.438h-8V60.53h8zm-2.507-2.434a2.469 2.469 0 012.507 2.434h-8c0 2.892 2.285 5.566 5.493 5.566v-8zm6.351 0h-6.351v8h6.351v-8zm-2.507 2.434c0-1.165.944-2.434 2.507-2.434v8c3.208 0 5.493-2.674 5.493-5.566h-8zm0-10.614V60.53h8V49.916h-8zm5.142-7.438l-4.168 4.823 6.052 5.23 4.169-4.822-6.053-5.232zm15.84 16.863l-9.347-16.243-6.933 3.99 9.346 16.243 6.934-3.99zm-2.194-1.245c1.002 0 1.792.552 2.187 1.233l-6.92 4.014c.942 1.624 2.7 2.753 4.733 2.753v-8zm7.208 0h-7.208v8h7.208v-8zm-2.229 1.32a2.51 2.51 0 012.229-1.32v8c2.088 0 3.915-1.192 4.838-2.931l-7.067-3.75zm.059 2.324a2.37 2.37 0 01-.054-2.334l7.057 3.768a5.631 5.631 0 00-.12-5.512l-6.883 4.078zm-12.726-21.48l12.726 21.48 6.883-4.078-12.726-21.48-6.883 4.077zm-46.42-23.375h-6.253v8h6.253v-8zm5.493 5.565c0-2.889-2.281-5.565-5.493-5.565v8a2.47 2.47 0 01-2.507-2.435h8zm0 20.215V22.45h-8v20.215h8zm13.456-24.621l-20.384 21.895 5.855 5.451 20.384-21.895-5.855-5.451zm3.991-1.747a5.477 5.477 0 00-3.961 1.715l5.795 5.515a2.525 2.525 0 01-1.834.77v-8zm.197 0h-.197v8h.197v-8zm5.493 5.566c0-2.892-2.285-5.566-5.493-5.566v8a2.47 2.47 0 01-2.507-2.434h8zm0 38.68v-38.68h-8v38.68h8zm-5.493 5.565c3.208 0 5.493-2.674 5.493-5.566h-8a2.47 2.47 0 012.507-2.434v8zm-6.253 0h6.253v-8h-6.253v8zm-5.492-5.566c0 2.889 2.281 5.566 5.492 5.566v-8a2.47 2.47 0 012.508 2.434h-8zm0-20.272v20.272h8V40.27h-8zm-13.499 24.678l20.428-21.953-5.857-5.45-20.427 21.953 5.856 5.45zm-3.992 1.747a5.48 5.48 0 003.959-1.712l-5.79-5.52a2.521 2.521 0 011.831-.768v8zm-.154 0h.154v-8h-.154v8zm-5.492-5.566c0 2.89 2.281 5.566 5.492 5.566v-8a2.47 2.47 0 012.508 2.434h-8zm0-38.679v38.68h8V22.45h-8zm5.492-5.565c-3.211 0-5.492 2.677-5.492 5.565h8a2.47 2.47 0 01-2.508 2.435v-8zm106.261 8h6.254v-8h-6.254v8zm2.509-2.435a2.47 2.47 0 01-2.509 2.435v-8c-3.209 0-5.491 2.676-5.491 5.565h8zm0 38.68V22.45h-8v38.68h8zm-2.509-2.435a2.47 2.47 0 012.509 2.434h-8c0 2.89 2.282 5.566 5.491 5.566v-8zm.155 0h-.155v8h.155v-8zm-1.825.762a2.521 2.521 0 011.825-.762v8a5.483 5.483 0 003.954-1.706l-5.779-5.532zm20.388-21.912l-20.427 21.953 5.857 5.45 20.426-21.953-5.856-5.45zm6.928 22.997V40.27h-8v20.272h8zm-2.507-2.434a2.47 2.47 0 012.507 2.434h-8c0 2.892 2.285 5.566 5.493 5.566v-8zm6.252 0h-6.252v8h6.252v-8zM276 60.542a2.47 2.47 0 012.507-2.434v8c3.208 0 5.493-2.674 5.493-5.566h-8zm0-38.679v38.68h8v-38.68h-8zm2.507 2.434A2.47 2.47 0 01276 21.863h8c0-2.892-2.285-5.566-5.493-5.566v8zm-.197 0h.197v-8h-.197v8zm1.834-.77a2.525 2.525 0 01-1.834.77v-8a5.477 5.477 0 00-3.961 1.715l5.795 5.515zM259.791 45.39l20.383-21.895-5.855-5.451-20.383 21.895 5.855 5.451zm-6.928-22.94v20.215h8V22.45h-8zm2.507 2.435a2.47 2.47 0 01-2.507-2.435h8c0-2.892-2.285-5.565-5.493-5.565v8z" fill="#fff" mask="url(#path-6-outside-1_1_1713)"/></svg>