<svg width="301" height="251" fill="none" xmlns="http://www.w3.org/2000/svg"><path fill-rule="evenodd" clip-rule="evenodd" d="M60.35 139.522c.205.162.338.399.372.658a115.104 115.104 0 007.403 28.11c23.736 58.846 90.681 87.309 149.528 63.574 58.846-23.735 87.309-90.681 63.574-149.527-23.736-58.847-90.681-87.31-149.528-63.574-29.818 12.027-51.835 35.149-63.213 62.69a1.01 1.01 0 01-.492.522l-48.55 23.384a1 1 0 00-.187 1.686l41.093 32.477zm1.396-64.488a1.004 1.004 0 01-.482.497L3.085 103.553a1 1 0 00-.186 1.686l49.319 38.978c.197.156.328.381.368.629a123.981 123.981 0 007.447 26.708c25.538 63.316 97.568 93.941 160.884 68.403 63.315-25.538 93.94-97.569 68.402-160.884-25.538-63.316-97.568-93.94-160.884-68.403-30.96 12.488-54.112 36.107-66.69 64.364z" fill="#fff"/><path fill-rule="evenodd" clip-rule="evenodd" d="M131.743 18.745c58.846-23.736 125.792 4.728 149.527 63.574 23.736 58.846-4.728 125.792-63.574 149.527-58.846 23.736-125.792-4.728-149.527-63.574a115.08 115.08 0 01-7.455-28.515l-42.667-33.721 50.336-24.245c11.335-27.698 33.413-50.967 63.36-63.046z" fill="#FCEC06"/><path fill-rule="evenodd" clip-rule="evenodd" d="M60.051 139.26c.411.324.677.797.747 1.315a115.116 115.116 0 007.35 27.706c23.735 58.846 90.68 87.309 149.527 63.574 58.846-23.736 87.309-90.681 63.574-149.528-23.736-58.846-90.681-87.31-149.528-63.574-29.69 11.976-51.646 34.95-63.066 62.336-.19.456-.54.829-.985 1.043L19.465 105.35a1 1 0 00-.186 1.686l40.772 32.224zm5.22-61.364a2.018 2.018 0 01-.974 1.018l-53.01 25.533a1 1 0 00-.187 1.685l44.878 35.469c.402.318.666.779.742 1.286a119.573 119.573 0 007.381 27.026c24.637 61.081 94.125 90.625 155.206 65.988 61.081-24.637 90.625-94.125 65.988-155.206-24.637-61.08-94.125-90.625-155.206-65.988-30.268 12.209-52.796 35.439-64.817 63.19z" fill="#000"/><path fill-rule="evenodd" clip-rule="evenodd" d="M144.353 132.292c-3.849 0-6.784-1.744-8.808-5.231-.681-1.206-1.462-3.115-2.342-5.725a62.316 62.316 0 01-2.078-7.731c-.264-1.317-.396-2.435-.396-3.356 0-.812.11-1.459.33-1.942-.088-.46-.132-1.019-.132-1.677 0-1.163.165-2.885.495-5.166.33-2.303.869-4.749 1.616-7.337.748-2.588 1.551-4.255 2.408-5 .44-1.558 1.771-3.093 3.992-4.607 2.221-1.535 4.365-2.423 6.432-2.665a57.397 57.397 0 001.584-.131 8.76 8.76 0 011.22-.1c.506 0 1.034.11 1.583.33 1.166.482 2.364 1.195 3.596 2.139 1.693 1.337 2.661 2.401 2.903 3.19 1.143.988 2.232 3.532 3.265 7.634.352 1.36.627 2.16.825 2.402a92.62 92.62 0 00.594 3.421c.55 2.347.846 4.771.89 7.271-.176 3.181-.439 5.901-.791 8.16-.396 2.434-1.221 4.902-2.474 7.402-1.254 2.479-2.826 4.289-4.717 5.429-1.474 1.272-3.354 2.183-5.641 2.731-1.539.373-2.991.559-4.354.559zm2.21-8.554c3.409 0 5.399-2.49 5.97-7.469l.297-2.5c.396-2.939.594-5.176.594-6.712 0-6.054-.858-11.022-2.573-14.904-.901-2.04-2.133-3.06-3.694-3.06a4.2 4.2 0 00-1.32.23 17.1 17.1 0 00-1.748.725c-.682.328-1.21.657-1.583.986-1.232 1.536-2.046 3.894-2.441 7.074-.374 2.895-.561 5.363-.561 7.403v.625c.066 1.206.099 2.819.099 4.836a81.7 81.7 0 01-.132 4.738c.22.241.583 1.053 1.088 2.435.682 1.842 1.232 3.049 1.65 3.619.769.965 1.902 1.59 3.397 1.875.308.066.627.099.957.099zm-36.021 7.139l-2.309-.526c-.088-.592-.132-1.47-.132-2.632 0-1.272.033-2.873.099-4.804l-.066-2.895-.066-1.612c.022-1.777.11-5.22.264-10.331l.033-4.869-.033-5.297-.759 1.02c-1.495 2.083-2.606 3.476-3.332 4.178l-2.375-1.053c-.549-.548-1-.932-1.352-1.151-.528-.307-1.089-.867-1.682-1.678.175-.527.791-1.492 1.847-2.895a21.57 21.57 0 001.352-1.942c.77-1.206 1.792-2.555 3.068-4.046a54.2 54.2 0 001.814-2.27c.022-.33.33-.91.924-1.744.264-.373.517-.757.759-1.152l.56-.822c.88-.417 1.694-.636 2.441-.658.77-.044 1.232-.066 1.386-.066 1.099 0 1.99.197 2.672.592.088.197.165.965.231 2.303.066 1.316.109 2.643.131 3.981.044 1.338.066 2.424.066 3.257 0 2.983-.077 4.859-.23 5.626l.131 4.541c.066 2.347.099 4.2.099 5.56 0 1.404-.033 3.093-.099 5.067 0 .351-.032.811-.098 1.381-.044.395-.11.691-.198.889v.888l.066 4.047c0 1.075-.033 2.062-.099 2.961a22.58 22.58 0 00-.099 2.336c0 1.733-.099 2.862-.297 3.389-.77.263-1.474.395-2.111.395-.198 0-.407-.011-.627-.033a6.013 6.013 0 00-.66-.033c-.418 0-.857.033-1.319.098zm60.761-3.816c2.023 3.487 4.959 5.231 8.807 5.231 1.364 0 2.815-.186 4.354-.559 2.287-.548 4.168-1.459 5.641-2.731 1.891-1.14 3.464-2.95 4.717-5.429 1.254-2.5 2.078-4.968 2.474-7.402.352-2.259.616-4.979.792-8.16a34.437 34.437 0 00-.891-7.271 92.62 92.62 0 01-.594-3.421c-.198-.242-.472-1.042-.824-2.402-1.034-4.102-2.122-6.646-3.266-7.633-.242-.79-1.209-1.854-2.903-3.192-1.231-.943-2.43-1.656-3.595-2.138a4.272 4.272 0 00-1.584-.33c-.352 0-.758.034-1.22.1-.44.043-.968.087-1.584.131-2.067.242-4.211 1.13-6.432 2.665-2.221 1.514-3.551 3.049-3.991 4.606-.858.746-1.661 2.413-2.408 5.001-.748 2.588-1.287 5.034-1.617 7.337-.329 2.281-.494 4.003-.494 5.166 0 .658.044 1.217.132 1.677-.22.483-.33 1.13-.33 1.942 0 .921.132 2.039.396 3.356a61.967 61.967 0 002.078 7.731c.879 2.61 1.66 4.519 2.342 5.725zm16.988-10.792c-.572 4.979-2.562 7.469-5.971 7.469-.33 0-.649-.033-.956-.099-1.496-.285-2.628-.91-3.398-1.875-.418-.57-.968-1.777-1.649-3.619-.506-1.382-.869-2.194-1.089-2.435a81.7 81.7 0 00.132-4.738c0-2.017-.033-3.63-.099-4.836v-.625c0-2.04.187-4.508.561-7.403.396-3.18 1.209-5.538 2.441-7.074.374-.329.901-.658 1.583-.987a17.11 17.11 0 011.748-.723c.462-.154.902-.23 1.32-.23 1.561 0 2.793 1.02 3.694 3.06 1.716 3.882 2.573 8.849 2.573 14.903 0 1.536-.198 3.773-.593 6.712l-.297 2.5zm27.576 16.023c-3.848 0-6.784-1.744-8.807-5.231-.682-1.206-1.462-3.115-2.342-5.725a62.141 62.141 0 01-2.078-7.731c-.264-1.317-.396-2.435-.396-3.356 0-.812.11-1.459.33-1.942-.088-.46-.132-1.019-.132-1.677 0-1.163.165-2.885.495-5.166.33-2.303.868-4.749 1.616-7.337.748-2.588 1.55-4.255 2.408-5 .44-1.558 1.77-3.093 3.991-4.607 2.222-1.535 4.366-2.423 6.433-2.665a57.29 57.29 0 001.583-.131 8.785 8.785 0 011.221-.1c.505 0 1.033.11 1.583.33 1.165.482 2.364 1.195 3.595 2.139 1.694 1.337 2.661 2.401 2.903 3.19 1.144.988 2.232 3.532 3.266 7.634.352 1.36.627 2.16.825 2.402.176 1.14.373 2.28.593 3.421.55 2.347.847 4.771.891 7.271-.176 3.181-.44 5.901-.792 8.16-.396 2.434-1.22 4.902-2.474 7.402-1.253 2.479-2.825 4.289-4.717 5.429-1.473 1.272-3.353 2.183-5.64 2.731-1.54.373-2.991.559-4.355.559zm2.21-8.554c3.409 0 5.399-2.49 5.971-7.469l.297-2.5c.396-2.939.594-5.176.594-6.712 0-6.054-.858-11.022-2.573-14.904-.902-2.04-2.133-3.06-3.695-3.06a4.18 4.18 0 00-1.319.23c-.462.154-1.045.396-1.748.725-.682.328-1.21.657-1.584.986-1.231 1.536-2.045 3.894-2.441 7.074-.374 2.895-.561 5.363-.561 7.403v.625c.066 1.206.099 2.819.099 4.836a81.7 81.7 0 01-.132 4.738c.22.241.583 1.053 1.089 2.435.682 1.842 1.231 3.049 1.649 3.619.77.965 1.902 1.59 3.398 1.875.308.066.627.099.956.099zm27.181-3.093c.968.439 2.199.658 3.695.658 1.055 0 1.924-.175 2.606-.526.11-.154.209-.812.297-1.974.11-1.163.198-2.512.263-4.047a76.29 76.29 0 00.132-4.277h.099c.77.044 1.54.066 2.309.066 2.617 0 5.256-.187 7.917-.56.396-.965.594-2.171.594-3.619 0-1.096-.165-1.974-.495-2.632-.176-.087-.847-.186-2.012-.296a80.614 80.614 0 00-4.057-.263 74.993 74.993 0 00-4.256-.132c.044-1.184.066-2.292.066-3.323a53.51 53.51 0 00-.099-3.454l-.066-1.086.033-1.053c0-.592-.077-1.13-.23-1.612-.748-.22-1.441-.329-2.079-.329l-1.154.066c-.418 0-.869-.033-1.353-.099l-2.243.46c-.132.637-.198 1.854-.198 3.653 0 1.009-.033 1.93-.099 2.763-.066 1.251-.11 1.942-.132 2.073 0 .11-.021.724-.065 1.843l-2.804-.066c-1.452 0-2.738.044-3.86.131l-1.055.066-1.122-.033c-.572 0-1.099.066-1.583.198-.198.746-.297 1.436-.297 2.073l.033 1.151c0 .417-.033.866-.099 1.349l.462 2.204c.594.176 1.836.264 3.727.264 1.891 0 3.475.065 4.75.197.242.044.88.066 1.913.066a53.509 53.509 0 00.462 10.1zm-38.118 45.716c3.301 0 5.195-1.519 5.683-4.559.054-.446.128-.946.223-1.5.257-1.581.385-2.702.385-3.364 0-3.959-1.299-7.573-3.896-10.842a2.46 2.46 0 01-.629-.223 1.783 1.783 0 00-.873-.223c-.243 0-.568.067-.974.202-1.191.419-1.962.764-2.314 1.034-.92.919-1.65 2.331-2.191 4.236-.541 1.905-.812 3.499-.812 4.782l.02 2.27c0 1.216-.04 2.371-.121 3.466.121.094.378.574.771 1.438.446 1.068.825 1.791 1.136 2.169.541.567 1.502.925 2.882 1.074.243.027.48.04.71.04zm-1.928 5.209c-2.733 0-4.803-1.04-6.21-3.121-.46-.716-.94-1.858-1.441-3.425a31.741 31.741 0 01-1.116-4.641 12.071 12.071 0 01-.142-1.702c0-.649.088-1.142.264-1.48a5.182 5.182 0 01-.061-.851c0-.716.122-1.777.365-3.182.244-1.405.636-2.884 1.177-4.438.555-1.554 1.137-2.547 1.746-2.979.311-.932 1.251-1.851 2.821-2.756 1.569-.919 3.078-1.453 4.525-1.601l1.116-.081c.406-.041.758-.061 1.056-.061.284.014.595.081.933.203.812.297 1.651.729 2.517 1.297 1.177.783 1.84 1.412 1.988 1.884.528.392.975 1.047 1.34 1.966.379.905.69 1.77.933 2.594.244.811.427 1.291.548 1.439.122.689.264 1.371.426 2.047.366 1.405.555 2.851.569 4.337a8.687 8.687 0 01-.122.709 12.04 12.04 0 00-.122.608c0 .27.02.466.061.588.054.108.095.29.122.547a4.845 4.845 0 01-.305 1.561c-.094.297-.175.587-.243.871-.284 1.459-.88 2.932-1.786 4.418-.893 1.486-2.009 2.567-3.348 3.243-1.056.77-2.483 1.324-4.283 1.661-1.204.23-2.313.345-3.328.345zm-88.258-.345c.311.068.92.102 1.826.102.879 0 1.509-.075 1.887-.223.393-.135.589-.487.589-1.054l-.02-.365a24.753 24.753 0 01-.021-3.182c.027-.486.041-.966.041-1.439 0-.662-.027-1.31-.081-1.945a61.429 61.429 0 01-.102-3.587c0-.824.014-1.655.041-2.493.027-.946.04-1.858.04-2.736l-.04-.993c-.108-2.661-.19-4.431-.244-5.309v-.284l-.02-.162c0-.135.027-.216.081-.243.054-.041.19-.061.406-.061.217 0 1.488-.102 3.815-.304a150.29 150.29 0 013.389-.284c.136 0 .251-.007.345-.02l.467-.021c.122.014.183.088.183.223 0 .054-.007.122-.02.203a2.33 2.33 0 00-.021.365l.021.547c-.217 6.228-.325 9.734-.325 10.518v.871c0 .649-.007 1.419-.02 2.311-.014.878-.021 1.776-.021 2.695 0 .905.014 2.047.041 3.425.027 1.365.196 2.452.507 3.263.393.149.941.223 1.644.223.961 0 1.752-.088 2.374-.264.041-2.08.061-4.093.061-6.039 0-1.608-.013-3.168-.04-4.681a245.55 245.55 0 01-.041-4.54c0-1.864.02-3.817.061-5.857.081-1.783.122-3.026.122-3.729l-.02-.527c0-.77.108-1.932.324-3.485-.379-.135-1.644-.203-3.795-.203l-.507.02-.02.021c-2.084-.054-3.599-.115-4.546-.183a26.728 26.728 0 00-4.1-.04 2.828 2.828 0 01-.507.101c-.014-.068-.189-.101-.528-.101-.094 0-.23.006-.406.02-.162.013-.351.027-.568.04h-.426l-.893-.04c-.257 0-.48.034-.67.101-.284.108-.426.662-.426 1.662 0 .473.027 1.067.081 1.783-.243 5.742-.399 9.721-.466 11.937-.081 3.891-.122 6.215-.122 6.972 0 2.783.068 4.343.203 4.681v1.054c0 .392.027.689.081.892a.468.468 0 00.386.364zm31.983-21.603c-.068 2.162-1.914 3.364-5.54 3.607.108-1.527.162-3.026.162-4.499l-.02-2.776c.392 0 .987.081 1.786.243.798.162 1.407.338 1.826.527 1.15.635 1.745 1.601 1.786 2.898zm-8.158 21.34h.264c.798-.041 1.461-.189 1.988-.446a4.629 4.629 0 01-.263-1.54v-.304c.013-.257.02-.574.02-.953l-.02-.648c0-1.5.128-3.56.385-6.181.122-1.27.237-2.162.345-2.675a16.34 16.34 0 005.906-1.622c.69-.391 1.346-1.067 1.968-2.026.623-.96 1.001-1.831 1.137-2.615.351-.554.534-1.107.548-1.661l.02-.892c0-1-.129-1.844-.386-2.533-.514-1.162-.933-1.899-1.258-2.209-.162-.149-.69-.541-1.583-1.176-.622-.419-1.664-.77-3.125-1.054-1.786-.351-3.443-.526-4.972-.526-1.082 0-1.84.128-2.273.385-.068.27-.135.743-.203 1.418-.054.676-.095 1.25-.122 1.723-.013.473-.02.817-.02 1.033 0 .311.013.554.041.73-.203.162-.305 1.115-.305 2.857v.608l.102 3.283c0 1.514-.068 3.257-.203 5.229a66.584 66.584 0 00-.224 5.29c0 2.242.136 4.316.406 6.221.541.189 1.15.284 1.827.284zm16.438 0c-.203 0-.413-.027-.629-.081-.203-.054-.325-.27-.365-.649.148-.635.236-1.283.263-1.945l.082-.892c0-.662-.007-1.304-.021-1.925-.027-1.243-.04-2.486-.04-3.729 0-2.662.067-5.344.203-8.046.162-2.999.243-5.607.243-7.822 0-1.446-.04-2.655-.122-3.628l.325-.122a.585.585 0 00.203-.02.161.161 0 01.061-.02c0-.054.149-.081.446-.081.528 0 .866-.014 1.015-.041.162-.027.318-.04.467-.04a2.6 2.6 0 01.771.142l.365.081h.467c.189 0 .399.02.629.061l-.04.709c-.19 1.283-.285 2.695-.285 4.235l.041 2.149a40.2 40.2 0 01-.101 2.918l-.427 4.925c0 .027-.006.047-.02.06l-.02.061c.067.23.101.493.101.79 0 .487-.108 1.939-.324 4.358.135-.298.351-.811.649-1.541l2.435-5.958c1.096-2.648 1.746-4.06 1.948-4.235.109-.446.291-.939.548-1.48.19-.432.42-1.02.69-1.763.312-.905.575-1.473.792-1.702v-.081c0-.23.095-.615.284-1.155.203-.595.359-.892.467-.892h.02c.081-.378.223-.696.426-.953a.966.966 0 01.812-.405h.101c.731-.04 1.665-.061 2.801-.061.514 0 .839.014.974.041l-.02 1.905c.067.162.101 1.04.101 2.634 0 .446-.006 1.054-.02 1.824a73.62 73.62 0 01-.081 2.351c-.027.784-.054 1.223-.081 1.317l.04 1.662a68.99 68.99 0 01.203 5.513c0 1.986-.027 3.837-.081 5.552v1.865c0 1.891-.101 3.155-.304 3.79a2.93 2.93 0 00-.487.081 9.025 9.025 0 01-.853.081l-1.157.04c-.324 0-.622-.027-.892-.081-.406-.094-.609-.378-.609-.851v-.101c.054-.824.108-2.473.162-4.945l.183-8.005a157 157 0 01.203-5.087c-.298.554-.717 1.432-1.259 2.635-1.38 3.053-2.212 5.134-2.496 6.242-.04.148-.264.763-.669 1.844-.528 1.364-.88 2.161-1.056 2.391l-.629 1.378c-.812 1.824-1.238 2.837-1.278 3.04a1.661 1.661 0 00-.325.608c-.162.351-.332.601-.507.75-.109.203-.521.304-1.238.304-.379 0-.772-.014-1.177-.041l-.731-.02c-.203 0-.365.007-.487.02-.23.027-.46.041-.69.041zm18.934.121c1.84.473 3.775.71 5.804.71.92 0 1.759-.054 2.517-.162.676-.108 1.556-.372 2.638-.791 1.082-.419 1.826-.898 2.232-1.439.406-.013.832-.324 1.279-.932.46-.608.852-1.29 1.177-2.047.325-.756.494-1.358.507-1.803.136-.108.203-.466.203-1.074 0-.717-.054-1.52-.162-2.412-.095-.757-.183-1.284-.264-1.581a7.393 7.393 0 00-.954-1.905c-.149-.203-.48-.534-.994-.993-1.231-1.094-2.131-1.804-2.699-2.128a15.348 15.348 0 01-.751-.405c.149-.27.372-.649.67-1.135l2.841-4.499a387.343 387.343 0 002.374-3.79 60.69 60.69 0 011.603-2.594v-.02c0-.149-1.4-.223-4.201-.223-.311-.108-.717-.162-1.217-.162-.744 0-1.671.081-2.78.243l-.447.061a145.144 145.144 0 00-6.25-.203c-1.096 0-1.84.034-2.233.102-.122.324-.182.729-.182 1.215 0 .217.027.588.081 1.115.054.527.291 1.054.71 1.581l.771.081c.92.108 1.475.162 1.664.162l.711-.02a78.706 78.706 0 013.551-.061h2.374l-2.983 5.391c-.311.392-.67.905-1.075 1.54a93.576 93.576 0 00-1.137 1.885 49.785 49.785 0 00-1.177 2.229c.622.067 1.421.263 2.395.588.622.189 1.17.425 1.644.709l.649.365c1.881.851 2.821 2.222 2.821 4.114 0 .567-.041 1.081-.122 1.54l-.101.851c-.23.257-.447.547-.65.872a4.847 4.847 0 01-.69.911c-.554.595-1.447.892-2.679.892-.649 0-1.407-.054-2.273-.162a4.157 4.157 0 00-.426-.061 18.233 18.233 0 01-4.424-.993c-.122.149-.209.433-.264.851a9.658 9.658 0 00-.121 1.46c0 .27.02.445.061.526l.02.061a.648.648 0 01-.02.102c-.014.04-.028.101-.041.182a.475.475 0 00-.041.162c.014.527.034.892.061 1.094zm54.003-17.813c-1.056.783-2.125 1.249-3.207 1.398.135-1.905.203-3.85.203-5.837l-.02-2.675c.352 0 .832.061 1.441.183.622.108 1.123.25 1.501.425.528.311.941.757 1.238 1.338.312.581.487 1.189.528 1.824-.054 1.445-.616 2.56-1.684 3.344zm1.319 13.862c-.663.581-1.739.871-3.227.871-.487 0-.988-.047-1.502-.142l-.101-1.317.446-5.634a5.273 5.273 0 01-.061-.709c0-.298.021-.622.061-.973v-.101c.325-.054.643-.081.954-.081.582 0 1.299.148 2.151.445a3.713 3.713 0 011.969 1.743c.46.824.696 1.703.71 2.635 0 .446-.034.837-.101 1.175-.041.27-.068.534-.082.791l-.487.526a4.868 4.868 0 01-.73.771zm-8.158 4.438c.852.121 1.657.182 2.414.182 1.002 0 2.179-.108 3.532-.324a13.825 13.825 0 003.47-1.054c.582-.27.994-.574 1.238-.912.365-.013.764-.304 1.197-.871a8.879 8.879 0 001.137-1.905c.311-.703.473-1.263.487-1.682.135-.108.203-.439.203-.993 0-.676-.061-1.426-.183-2.25-.095-.716-.176-1.216-.244-1.5a6.739 6.739 0 00-1.623-2.553c-.257-.243-.433-.439-.528-.588l-1.014-.365a4.97 4.97 0 00-.711-.385c.569-.405 1.049-1.013 1.441-1.824.406-.81.663-1.601.771-2.371.339-.581.515-1.168.528-1.763.027-.594.041-.946.041-1.054 0-.945-.115-1.756-.345-2.432-.447-1.188-.826-1.945-1.137-2.269-.162-.176-.643-.588-1.441-1.237-.554-.432-1.461-.776-2.719-1.033-1.245-.27-2.185-.412-2.821-.426-.636-.013-.981-.02-1.035-.02-1.136 0-1.935.149-2.395.446-.054.284-.115.777-.182 1.479a75.421 75.421 0 00-.122 1.784c-.014.486-.02.837-.02 1.054 0 .324.006.574.02.749-.217.19-.325 1.183-.325 2.979 0 1.135.007 1.993.02 2.574v.304c.014.108.021.223.021.345.027.729.04 1.472.04 2.229a92.713 92.713 0 00-.101 4.621c0 2.513.047 4.924.142 7.235.081 1.891.162 3.168.244 3.83z" fill="#000"/></svg>